<?xml version="1.0" encoding="utf-8"?>
<!-- Generator: Adobe Illustrator 26.0.1, SVG Export Plug-In . SVG Version: 6.00 Build 0)  -->
<svg version="1.1" id="Layer_1" xmlns="http://www.w3.org/2000/svg" xmlns:xlink="http://www.w3.org/1999/xlink" x="0px" y="0px"
	 viewBox="0 0 360 360" style="enable-background:new 0 0 360 360;" xml:space="preserve">
<style type="text/css">
	.st0{fill:#FFFFFF;}
</style>
<g>
	<path class="st0" d="M250.4,51.4c3,7.7,6.1,15.4,9,23.3c8.7,23.3,20.8,44.9,34.6,65.5c2.2,3.3,4.7,5.5,7.6,6.6h12.1
		c0.2,0,0.5-0.2,0.6-0.2c1.9-0.6,3.6-1.6,5.5-2.4s3.9-1.7,6-2.4c2.7-0.8,4.4,0.8,3.6,3.5c-0.2,0.5-0.3,0.9-0.5,1.4h14
		c0-1.6,0-3.1,0-4.7c-0.6-1.6-0.9-3.1-1.7-4.6c-3.6-7.2-11.2-10.2-18.9-7.6c-3.8,1.3-7.2,3.3-10.9,5c-4.7,2.2-6.1,1.9-9.1-2.2
		C288.6,114.2,276,95,266.4,73.9c-3-6.5-6-12.9-9.4-19.2c-1.6-2.8-3.9-5.2-6-7.6c-0.3-0.3-0.9-0.3-1.3-0.5c-0.2,0.5-0.3,0.9-0.2,1.4
		C249.6,49.2,249.9,50.3,250.4,51.4z"/>
	<path class="st0" d="M34.9,146.8h14.8c-4.2-5-8-10.5-11.5-16.2c-2.2-3.6-2.8-7.7-2-12c1.6-8.3,2.2-16.7,2.2-25.2
		c0-1.4,0.2-2.8,0.2-4.2c0.3-7.7,3.9-13.7,9.3-18.9c8.2-7.7,14.8-16.5,19.7-26.8c4.7-10.1,12.7-17,22.7-21.9
		c16.7-8.3,34.5-10.7,52.9-9.3c2.4,0.2,4.7,0.8,6.9,1.7c2.5,0.9,2.8,2,1.9,4.6c-2,5-0.8,9.4,2.8,13.2c11,11.2,24.1,14.3,39,9.6
		c3.1-0.9,6.3-2.2,9.4-2.8c4.7-0.9,9.4,0.3,14,1.4c5.4,1.4,10.5,2.8,15.9,3.9c3.9,0.8,8.2,0.8,12-1.1c0.6-0.3,1.1-1.1,1.6-1.6
		c-0.8-0.3-1.4-0.8-2.2-0.9c-3-0.2-6,0.2-8.8-0.5c-5.2-1.3-10.4-3-15.4-4.6c-5.4-1.7-10.5-3.6-16.2-3c-4.2,0.5-8.5,1.7-12.7,2.8
		c-11.5,3-21.4,0.5-29.9-7.9c-2-1.9-2.7-3.9-1.6-6.8c2-5.2,0.5-9.6-4.1-12.7c-3-2-6.3-3.1-9.8-3.6c-18.3-2-36,0-53.2,6.5
		c-11.6,4.4-21.9,11-29.6,21.1c-1.6,2-3.1,4.2-4.4,6.6C54,47,47.7,54.4,39.9,60.7c-4.1,3.3-7.6,7.2-10.2,12
		C26.1,79.1,25,86,25.2,93.3c0,7.4-0.2,15-1.6,22.2c-1.7,9,0.5,17.2,6,24.4C31.3,142.4,33,144.6,34.9,146.8z"/>
	<path class="st0" d="M294.1,250.7c-0.6-5.5-2-10.9-3.5-16.4c-0.3-1.3-0.6-2.4-0.8-3.6h-14.8c0.2,1.3,0.5,2.7,0.8,3.9
		c0.9,3.9,2.4,7.9,3.5,12c2.2,8.5,1.1,11.3-6.3,15.9c-3.1,2-6.5,3.9-9.4,6.5c-5.5,4.6-8,10.5-7.1,17.6c0.3,1.7,0.5,3.6,0.9,5.4
		c0.8,3.1,0,5.8-2.4,7.9c-4.7,4.1-7.4,9.4-9.3,15.3c-2.8,9.3-7.7,17.3-14.6,24.1c-10.1,9.8-22,14.2-36.2,12c-3.1-0.5-4.9-2.2-5.8-5
		c-0.5-1.4-0.8-3-1.1-4.4c-1.4-6.1-2.5-12.3-4.2-18.3c-4.4-14.5-9-28.8-13.8-43.1c-4.1-11.8-5.2-23.1-0.3-35.1
		c1.4-3.5,1.9-7.6,2-11.3c0-1.1,0-2.2,0-3.5h-11.2c0,3.1-0.6,6.5-1.9,9.9c-0.9,2.5-1.9,5-2.8,7.7c-3.3,8.3-3.6,17-1.6,25.7
		c3.3,14.2,9,27.4,15,40.6c4.7,10.4,9.4,20.9,14.3,31.3c0.6,1.4,1.4,2.8,2.2,4.2c1.7,2.8,4.2,4.6,7.6,5c0.5,0,0.9,0.3,1.6,0.5
		c3.1,0,6.5,0,9.6,0c0.3-0.2,0.8-0.3,1.1-0.3c5.4-1.3,10.7-2,15.9-3.8c15.7-5.5,27.9-15.1,33.8-31.2c1.9-5.2,4.6-9.8,9-13.4
		c4.9-4.1,6.3-9.6,5.5-15.9c-0.2-1.7-0.5-3.6-0.6-5.4c-0.3-2.5,0.6-4.7,2.7-6.3c1.6-1.3,3.3-2.2,5-3.3c2.7-1.6,5.5-3,8-4.9
		C291.3,266.2,295,259.3,294.1,250.7z"/>
</g>
<g>
	<path class="st0" d="M42.7,166.8H29.6v8.4h11c1,0,1.8,0.2,2.3,0.7s0.8,1.1,0.8,1.8s-0.3,1.4-0.8,1.8c-0.5,0.4-1.3,0.7-2.3,0.7h-11
		V191c0,1.4-0.3,2.4-0.9,3.1c-0.6,0.7-1.4,1-2.4,1s-1.8-0.3-2.4-1S23,192.4,23,191v-25.3c0-1,0.1-1.7,0.4-2.3s0.7-1,1.3-1.3
		c0.6-0.3,1.4-0.4,2.3-0.4h15.7c1.1,0,1.9,0.2,2.4,0.7s0.8,1.1,0.8,1.9c0,0.8-0.3,1.4-0.8,1.9S43.8,166.8,42.7,166.8z"/>
	<path class="st0" d="M51.1,191v-25.9c0-1.3,0.3-2.4,0.9-3c0.6-0.7,1.4-1,2.4-1s1.8,0.3,2.4,1c0.6,0.7,0.9,1.7,0.9,3V191
		c0,1.4-0.3,2.4-0.9,3.1c-0.6,0.7-1.4,1-2.4,1s-1.7-0.3-2.4-1C51.4,193.4,51.1,192.4,51.1,191z"/>
	<path class="st0" d="M74.2,180.5h-2.3V191c0,1.4-0.3,2.4-0.9,3.1c-0.6,0.7-1.4,1-2.4,1c-1.1,0-1.9-0.3-2.5-1s-0.9-1.7-0.9-3v-25.3
		c0-1.4,0.3-2.5,1-3.1c0.6-0.6,1.7-1,3.1-1h10.8c1.5,0,2.8,0.1,3.8,0.2c1.1,0.1,2,0.4,2.9,0.8c1,0.4,1.9,1.1,2.7,1.9
		c0.8,0.8,1.4,1.7,1.8,2.8s0.6,2.2,0.6,3.4c0,2.5-0.7,4.4-2.1,5.9s-3.5,2.5-6.3,3.1c1.2,0.6,2.3,1.6,3.4,2.8s2,2.5,2.9,3.9
		c0.8,1.4,1.5,2.6,2,3.8c0.5,1.1,0.7,1.9,0.7,2.3c0,0.4-0.1,0.9-0.4,1.3c-0.3,0.4-0.7,0.8-1.1,1c-0.5,0.2-1,0.4-1.7,0.4
		s-1.4-0.2-1.9-0.5c-0.5-0.4-0.9-0.8-1.3-1.3s-0.9-1.3-1.5-2.4l-2.7-4.4c-1-1.6-1.8-2.9-2.6-3.7c-0.8-0.9-1.5-1.4-2.3-1.8
		C76.4,180.6,75.4,180.5,74.2,180.5z M78,166.6h-6.2v9.1h6c1.6,0,2.9-0.1,4-0.4c1.1-0.3,1.9-0.7,2.5-1.4s0.9-1.6,0.9-2.8
		c0-0.9-0.2-1.7-0.7-2.4s-1.1-1.2-1.9-1.6C81.8,166.8,80.3,166.6,78,166.6z"/>
	<path class="st0" d="M123.3,184.7c0,2-0.5,3.8-1.5,5.4c-1,1.6-2.5,2.8-4.5,3.7s-4.3,1.3-7,1.3c-3.2,0-5.9-0.6-8-1.8
		c-1.5-0.9-2.7-2.1-3.6-3.5c-0.9-1.5-1.4-2.9-1.4-4.3c0-0.8,0.3-1.5,0.8-2.1c0.6-0.6,1.3-0.9,2.1-0.9c0.7,0,1.3,0.2,1.8,0.7
		c0.5,0.4,0.9,1.1,1.2,2c0.4,1,0.9,1.9,1.4,2.6c0.5,0.7,1.2,1.3,2.1,1.7c0.9,0.5,2,0.7,3.5,0.7c2,0,3.6-0.5,4.8-1.4
		c1.2-0.9,1.9-2.1,1.9-3.4c0-1.1-0.3-2-1-2.7s-1.5-1.2-2.6-1.6s-2.5-0.7-4.2-1.1c-2.4-0.6-4.3-1.2-5.9-1.9s-2.9-1.8-3.8-3
		c-0.9-1.3-1.4-2.9-1.4-4.8c0-1.8,0.5-3.4,1.5-4.8c1-1.4,2.4-2.5,4.3-3.2c1.9-0.8,4.1-1.1,6.6-1.1c2,0,3.8,0.3,5.2,0.8
		c1.5,0.5,2.7,1.2,3.7,2s1.7,1.7,2.1,2.6c0.4,0.9,0.7,1.8,0.7,2.7c0,0.8-0.3,1.5-0.8,2.1c-0.6,0.6-1.3,1-2.1,1
		c-0.8,0-1.3-0.2-1.7-0.6c-0.4-0.4-0.8-1-1.3-1.9c-0.6-1.2-1.3-2.2-2.2-2.9c-0.8-0.7-2.2-1-4-1c-1.7,0-3.1,0.4-4.2,1.1
		c-1.1,0.8-1.6,1.7-1.6,2.7c0,0.7,0.2,1.2,0.5,1.7c0.4,0.5,0.9,0.9,1.5,1.2s1.3,0.6,1.9,0.8s1.7,0.5,3.2,0.9c1.9,0.4,3.5,0.9,5,1.4
		s2.8,1.2,3.8,1.9c1.1,0.7,1.9,1.7,2.5,2.8C123,181.6,123.3,183,123.3,184.7z"/>
	<path class="st0" d="M150.4,167.1h-7.3V191c0,1.4-0.3,2.4-0.9,3.1c-0.6,0.7-1.4,1-2.4,1s-1.8-0.3-2.4-1c-0.6-0.7-0.9-1.7-0.9-3.1
		v-23.9h-7.3c-1.1,0-2-0.3-2.5-0.8c-0.6-0.5-0.8-1.2-0.8-2c0-0.9,0.3-1.5,0.9-2s1.4-0.7,2.5-0.7h21.2c1.2,0,2,0.3,2.6,0.8
		s0.8,1.2,0.8,2s-0.3,1.5-0.9,2C152.4,166.9,151.5,167.1,150.4,167.1z"/>
	<path class="st0" d="M190.3,190.8l-1.6-4.1h-13.4l-1.6,4.2c-0.6,1.6-1.1,2.8-1.6,3.3c-0.4,0.6-1.1,0.9-2.1,0.9
		c-0.8,0-1.6-0.3-2.2-0.9s-1-1.3-1-2.1c0-0.4,0.1-0.9,0.2-1.4s0.4-1.1,0.7-2l8.4-21.4c0.2-0.6,0.5-1.4,0.9-2.2
		c0.3-0.9,0.7-1.6,1.1-2.1c0.4-0.6,0.9-1,1.5-1.4s1.4-0.5,2.3-0.5c0.9,0,1.7,0.2,2.3,0.5c0.6,0.4,1.1,0.8,1.5,1.4
		c0.4,0.6,0.7,1.1,1,1.8c0.3,0.6,0.6,1.5,1,2.5l8.6,21.2c0.7,1.6,1,2.8,1,3.5c0,0.8-0.3,1.5-1,2.1c-0.6,0.6-1.4,1-2.3,1
		c-0.5,0-1-0.1-1.3-0.3c-0.4-0.2-0.7-0.4-0.9-0.8c-0.3-0.3-0.5-0.8-0.8-1.5C190.8,191.9,190.5,191.3,190.3,190.8z M177.1,181.7h9.8
		l-5-13.6L177.1,181.7z"/>
	<path class="st0" d="M222,166.8h-13.1v8.4h11c1,0,1.8,0.2,2.3,0.7s0.8,1.1,0.8,1.8s-0.3,1.4-0.8,1.8s-1.3,0.7-2.3,0.7h-11V191
		c0,1.4-0.3,2.4-0.9,3.1c-0.6,0.7-1.4,1-2.4,1s-1.8-0.3-2.4-1c-0.6-0.7-0.9-1.7-0.9-3.1v-25.3c0-1,0.1-1.7,0.4-2.3s0.7-1,1.3-1.3
		s1.4-0.4,2.3-0.4H222c1.1,0,1.9,0.2,2.4,0.7s0.8,1.1,0.8,1.9c0,0.8-0.3,1.4-0.8,1.9C223.9,166.5,223.1,166.8,222,166.8z"/>
	<path class="st0" d="M239.1,180.5h-2.3V191c0,1.4-0.3,2.4-0.9,3.1s-1.4,1-2.4,1c-1.1,0-1.9-0.3-2.5-1s-0.9-1.7-0.9-3v-25.3
		c0-1.4,0.3-2.5,1-3.1c0.6-0.6,1.7-1,3.1-1H245c1.5,0,2.8,0.1,3.8,0.2c1.1,0.1,2,0.4,2.9,0.8c1,0.4,1.9,1.1,2.7,1.9s1.4,1.7,1.8,2.8
		s0.6,2.2,0.6,3.4c0,2.5-0.7,4.4-2.1,5.9s-3.5,2.5-6.3,3.1c1.2,0.6,2.3,1.6,3.4,2.8s2,2.5,2.9,3.9c0.8,1.4,1.5,2.6,2,3.8
		c0.5,1.1,0.7,1.9,0.7,2.3c0,0.4-0.1,0.9-0.4,1.3c-0.3,0.4-0.7,0.8-1.1,1c-0.5,0.2-1,0.4-1.7,0.4s-1.4-0.2-1.9-0.5
		c-0.5-0.4-0.9-0.8-1.3-1.3c-0.4-0.5-0.9-1.3-1.5-2.4l-2.7-4.4c-1-1.6-1.8-2.9-2.6-3.7c-0.8-0.9-1.5-1.4-2.3-1.8
		S240.3,180.5,239.1,180.5z M242.9,166.6h-6.2v9.1h6c1.6,0,3-0.1,4-0.4c1.1-0.3,1.9-0.7,2.5-1.4s0.9-1.6,0.9-2.8
		c0-0.9-0.2-1.7-0.7-2.4s-1.1-1.2-1.9-1.6C246.7,166.8,245.2,166.6,242.9,166.6z"/>
	<path class="st0" d="M263.5,191v-25.9c0-1.3,0.3-2.4,0.9-3s1.4-1,2.4-1s1.8,0.3,2.4,1s0.9,1.7,0.9,3V191c0,1.4-0.3,2.4-0.9,3.1
		c-0.6,0.7-1.4,1-2.4,1s-1.7-0.3-2.4-1C263.8,193.4,263.5,192.4,263.5,191z"/>
	<path class="st0" d="M305.6,184.1c0,1-0.3,2.2-0.8,3.4s-1.3,2.4-2.4,3.6c-1.1,1.2-2.5,2.1-4.2,2.9s-3.7,1.1-6,1.1
		c-1.7,0-3.3-0.2-4.7-0.5s-2.7-0.8-3.9-1.5c-1.2-0.7-2.2-1.6-3.2-2.8c-0.9-1-1.6-2.2-2.2-3.5s-1.1-2.6-1.4-4.1s-0.5-3-0.5-4.6
		c0-2.7,0.4-5,1.2-7.1c0.8-2.1,1.9-3.9,3.3-5.4s3.1-2.6,5.1-3.4c1.9-0.8,4-1.2,6.2-1.2c2.7,0,5,0.5,7.1,1.6s3.7,2.4,4.8,3.9
		c1.1,1.6,1.7,3,1.7,4.4c0,0.8-0.3,1.4-0.8,2s-1.2,0.9-2,0.9c-0.9,0-1.5-0.2-1.9-0.6c-0.4-0.4-0.9-1.1-1.4-2.1
		c-0.9-1.6-1.9-2.9-3.1-3.7s-2.6-1.2-4.3-1.2c-2.7,0-4.9,1-6.5,3.1s-2.4,5-2.4,8.9c0,2.6,0.4,4.7,1.1,6.4s1.7,3,3.1,3.8
		s2.9,1.3,4.6,1.3c1.9,0,3.5-0.5,4.9-1.4c1.3-1,2.3-2.3,3-4.2c0.3-0.9,0.6-1.6,1.1-2.1c0.4-0.5,1.1-0.8,2-0.8c0.8,0,1.5,0.3,2,0.8
		S305.6,183.3,305.6,184.1z"/>
	<path class="st0" d="M332.7,190.8l-1.6-4.1h-13.4l-1.6,4.2c-0.6,1.6-1.1,2.8-1.6,3.3c-0.4,0.6-1.1,0.9-2.1,0.9
		c-0.8,0-1.6-0.3-2.2-0.9s-1-1.3-1-2.1c0-0.4,0.1-0.9,0.2-1.4s0.4-1.1,0.7-2l8.4-21.4c0.2-0.6,0.5-1.4,0.9-2.2
		c0.3-0.9,0.7-1.6,1.1-2.1c0.4-0.6,0.9-1,1.5-1.4s1.4-0.5,2.3-0.5s1.7,0.2,2.3,0.5c0.6,0.4,1.1,0.8,1.5,1.4c0.4,0.6,0.7,1.1,1,1.8
		c0.3,0.6,0.6,1.5,1,2.5l8.6,21.2c0.7,1.6,1,2.8,1,3.5c0,0.8-0.3,1.5-1,2.1c-0.6,0.6-1.4,1-2.3,1c-0.5,0-1-0.1-1.3-0.3
		c-0.4-0.2-0.7-0.4-0.9-0.8c-0.3-0.3-0.5-0.8-0.8-1.5C333.2,191.9,332.9,191.3,332.7,190.8z M319.5,181.7h9.8l-5-13.6L319.5,181.7z"
		/>
</g>
<g>
	<path class="st0" d="M255.6,208.1h-0.7v3.2c0,0.4-0.1,0.7-0.3,0.9s-0.4,0.3-0.7,0.3s-0.6-0.1-0.8-0.3s-0.3-0.5-0.3-0.9v-7.7
		c0-0.4,0.1-0.8,0.3-1s0.5-0.3,1-0.3h3.3c0.5,0,0.8,0,1.2,0.1c0.3,0,0.6,0.1,0.9,0.2c0.3,0.1,0.6,0.3,0.8,0.6s0.4,0.5,0.6,0.9
		c0.1,0.3,0.2,0.7,0.2,1c0,0.7-0.2,1.3-0.6,1.8c-0.4,0.4-1.1,0.8-1.9,1c0.4,0.2,0.7,0.5,1,0.8s0.6,0.8,0.9,1.2s0.5,0.8,0.6,1.1
		s0.2,0.6,0.2,0.7c0,0.1,0,0.3-0.1,0.4c-0.1,0.1-0.2,0.2-0.3,0.3c-0.1,0.1-0.3,0.1-0.5,0.1s-0.4-0.1-0.6-0.2
		c-0.2-0.1-0.3-0.2-0.4-0.4s-0.3-0.4-0.5-0.7l-0.8-1.4c-0.3-0.5-0.6-0.9-0.8-1.1c-0.2-0.3-0.5-0.4-0.7-0.5S256,208.1,255.6,208.1z
		 M256.8,203.9h-1.9v2.8h1.8c0.5,0,0.9,0,1.2-0.1c0.3-0.1,0.6-0.2,0.8-0.4c0.2-0.2,0.3-0.5,0.3-0.8s-0.1-0.5-0.2-0.7
		s-0.3-0.4-0.6-0.5C258,204,257.5,203.9,256.8,203.9z"/>
	<path class="st0" d="M269.6,204H265v2.5h4.2c0.3,0,0.5,0.1,0.7,0.2c0.2,0.1,0.2,0.3,0.2,0.6s-0.1,0.4-0.2,0.6
		c-0.2,0.1-0.4,0.2-0.7,0.2H265v2.9h4.7c0.3,0,0.6,0.1,0.7,0.2c0.2,0.1,0.2,0.3,0.2,0.6c0,0.2-0.1,0.4-0.2,0.6
		c-0.2,0.1-0.4,0.2-0.7,0.2h-5.5c-0.4,0-0.8-0.1-1-0.3s-0.3-0.5-0.3-1v-7.5c0-0.3,0-0.5,0.1-0.7s0.2-0.3,0.4-0.4
		c0.2-0.1,0.4-0.1,0.7-0.1h5.4c0.3,0,0.6,0.1,0.7,0.2c0.2,0.1,0.2,0.3,0.2,0.6c0,0.2-0.1,0.4-0.2,0.6
		C270.1,203.9,269.9,204,269.6,204z"/>
	<path class="st0" d="M279.9,209.4c0,0.6-0.2,1.2-0.5,1.6c-0.3,0.5-0.8,0.9-1.4,1.1s-1.3,0.4-2.1,0.4c-1,0-1.8-0.2-2.4-0.6
		c-0.5-0.3-0.8-0.6-1.1-1.1c-0.3-0.4-0.4-0.9-0.4-1.3c0-0.2,0.1-0.5,0.3-0.6c0.2-0.2,0.4-0.3,0.7-0.3c0.2,0,0.4,0.1,0.5,0.2
		c0.1,0.1,0.3,0.3,0.4,0.6s0.3,0.6,0.4,0.8s0.4,0.4,0.6,0.5c0.3,0.1,0.6,0.2,1.1,0.2c0.6,0,1.1-0.1,1.5-0.4c0.4-0.3,0.6-0.6,0.6-1
		c0-0.3-0.1-0.6-0.3-0.8c-0.2-0.2-0.5-0.4-0.8-0.5s-0.8-0.2-1.3-0.3c-0.7-0.2-1.3-0.4-1.8-0.6c-0.5-0.2-0.9-0.5-1.2-0.9
		c-0.3-0.4-0.4-0.9-0.4-1.5s0.2-1,0.5-1.5s0.7-0.8,1.3-1c0.6-0.2,1.2-0.3,2-0.3c0.6,0,1.1,0.1,1.6,0.2c0.4,0.2,0.8,0.4,1.1,0.6
		c0.3,0.3,0.5,0.5,0.6,0.8s0.2,0.5,0.2,0.8c0,0.2-0.1,0.5-0.3,0.7c-0.2,0.2-0.4,0.3-0.6,0.3s-0.4-0.1-0.5-0.2
		c-0.1-0.1-0.3-0.3-0.4-0.6c-0.2-0.4-0.4-0.7-0.7-0.9c-0.3-0.2-0.7-0.3-1.2-0.3s-0.9,0.1-1.3,0.3c-0.3,0.2-0.5,0.5-0.5,0.8
		c0,0.2,0.1,0.4,0.2,0.5s0.3,0.3,0.5,0.4s0.4,0.2,0.6,0.2s0.5,0.1,1,0.3c0.6,0.1,1.1,0.3,1.5,0.4c0.5,0.2,0.8,0.4,1.2,0.6
		c0.3,0.2,0.6,0.5,0.8,0.9C279.8,208.5,279.9,208.9,279.9,209.4z"/>
	<path class="st0" d="M286.1,202.2c1,0,1.9,0.2,2.7,0.6c0.7,0.4,1.3,1,1.7,1.8c0.4,0.8,0.6,1.7,0.6,2.7c0,0.8-0.1,1.5-0.3,2.1
		s-0.5,1.2-0.9,1.6s-0.9,0.8-1.5,1.1s-1.3,0.4-2.1,0.4c-0.8,0-1.5-0.1-2.1-0.4c-0.6-0.3-1.1-0.6-1.6-1.1s-0.7-1-0.9-1.7
		c-0.2-0.6-0.3-1.3-0.3-2.1s0.1-1.5,0.3-2.1c0.2-0.6,0.5-1.2,1-1.6s0.9-0.8,1.5-1C284.6,202.3,285.3,202.2,286.1,202.2z
		 M288.9,207.4c0-0.7-0.1-1.4-0.4-1.9s-0.6-0.9-1-1.2s-0.9-0.4-1.5-0.4c-0.4,0-0.8,0.1-1.1,0.2c-0.3,0.2-0.6,0.4-0.9,0.7
		c-0.2,0.3-0.4,0.7-0.6,1.1c-0.1,0.5-0.2,1-0.2,1.5c0,0.6,0.1,1.1,0.2,1.5c0.1,0.5,0.3,0.8,0.6,1.1c0.3,0.3,0.6,0.5,0.9,0.7
		s0.7,0.2,1.1,0.2c0.5,0,1-0.1,1.4-0.4c0.4-0.3,0.8-0.7,1-1.2C288.8,208.8,288.9,208.2,288.9,207.4z"/>
	<path class="st0" d="M292.8,208.3v-4.8c0-0.4,0.1-0.7,0.3-0.9c0.2-0.2,0.4-0.3,0.7-0.3c0.3,0,0.6,0.1,0.7,0.3
		c0.2,0.2,0.3,0.5,0.3,0.9v4.9c0,0.6,0.1,1,0.2,1.4s0.3,0.7,0.7,0.9c0.3,0.2,0.8,0.3,1.3,0.3c0.8,0,1.4-0.2,1.7-0.6
		c0.3-0.4,0.5-1.1,0.5-1.9v-5c0-0.4,0.1-0.7,0.3-0.9c0.2-0.2,0.4-0.3,0.7-0.3s0.6,0.1,0.7,0.3c0.2,0.2,0.3,0.5,0.3,0.9v4.8
		c0,0.8-0.1,1.4-0.2,2c-0.2,0.5-0.4,1-0.9,1.4c-0.4,0.3-0.8,0.6-1.3,0.7s-1,0.2-1.7,0.2c-0.8,0-1.4-0.1-2-0.2
		c-0.6-0.2-1-0.4-1.4-0.8c-0.4-0.3-0.6-0.8-0.8-1.3C292.8,209.7,292.8,209,292.8,208.3z"/>
	<path class="st0" d="M306.1,208.1h-0.7v3.2c0,0.4-0.1,0.7-0.3,0.9s-0.4,0.3-0.7,0.3c-0.3,0-0.6-0.1-0.8-0.3s-0.3-0.5-0.3-0.9v-7.7
		c0-0.4,0.1-0.8,0.3-1s0.5-0.3,1-0.3h3.3c0.5,0,0.8,0,1.2,0.1c0.3,0,0.6,0.1,0.9,0.2c0.3,0.1,0.6,0.3,0.8,0.6s0.4,0.5,0.6,0.9
		c0.1,0.3,0.2,0.7,0.2,1c0,0.7-0.2,1.3-0.6,1.8c-0.4,0.4-1.1,0.8-1.9,1c0.4,0.2,0.7,0.5,1,0.8s0.6,0.8,0.9,1.2s0.5,0.8,0.6,1.1
		s0.2,0.6,0.2,0.7c0,0.1,0,0.3-0.1,0.4c-0.1,0.1-0.2,0.2-0.3,0.3c-0.1,0.1-0.3,0.1-0.5,0.1s-0.4-0.1-0.6-0.2
		c-0.2-0.1-0.3-0.2-0.4-0.4s-0.3-0.4-0.5-0.7l-0.8-1.4c-0.3-0.5-0.6-0.9-0.8-1.1c-0.2-0.3-0.5-0.4-0.7-0.5S306.5,208.1,306.1,208.1z
		 M307.3,203.9h-1.9v2.8h1.8c0.5,0,0.9,0,1.2-0.1c0.3-0.1,0.6-0.2,0.8-0.4c0.2-0.2,0.3-0.5,0.3-0.8s-0.1-0.5-0.2-0.7
		s-0.3-0.4-0.6-0.5C308.4,204,308,203.9,307.3,203.9z"/>
	<path class="st0" d="M321.8,209.2c0,0.3-0.1,0.7-0.2,1c-0.2,0.4-0.4,0.7-0.7,1.1c-0.3,0.4-0.8,0.6-1.3,0.9s-1.1,0.3-1.8,0.3
		c-0.5,0-1,0-1.4-0.2s-0.8-0.3-1.2-0.5c-0.4-0.2-0.7-0.5-1-0.8s-0.5-0.7-0.7-1.1c-0.2-0.4-0.3-0.8-0.4-1.2s-0.1-0.9-0.1-1.4
		c0-0.8,0.1-1.5,0.4-2.2c0.2-0.6,0.6-1.2,1-1.6c0.4-0.5,1-0.8,1.5-1s1.2-0.4,1.9-0.4c0.8,0,1.5,0.2,2.2,0.5s1.1,0.7,1.5,1.2
		c0.3,0.5,0.5,0.9,0.5,1.4c0,0.2-0.1,0.4-0.2,0.6s-0.4,0.3-0.6,0.3c-0.3,0-0.5-0.1-0.6-0.2c-0.1-0.1-0.3-0.3-0.4-0.6
		c-0.3-0.5-0.6-0.9-0.9-1.1c-0.4-0.2-0.8-0.4-1.3-0.4c-0.8,0-1.5,0.3-2,1c-0.5,0.6-0.7,1.5-0.7,2.7c0,0.8,0.1,1.4,0.3,1.9
		c0.2,0.5,0.5,0.9,0.9,1.2s0.9,0.4,1.4,0.4c0.6,0,1.1-0.1,1.5-0.4c0.4-0.3,0.7-0.7,0.9-1.3c0.1-0.3,0.2-0.5,0.3-0.6
		c0.1-0.2,0.3-0.2,0.6-0.2c0.2,0,0.4,0.1,0.6,0.3S321.8,209,321.8,209.2z"/>
	<path class="st0" d="M330.2,204h-4.6v2.5h4.2c0.3,0,0.5,0.1,0.7,0.2c0.2,0.1,0.2,0.3,0.2,0.6s-0.1,0.4-0.2,0.6
		c-0.2,0.1-0.4,0.2-0.7,0.2h-4.2v2.9h4.7c0.3,0,0.6,0.1,0.7,0.2c0.2,0.1,0.2,0.3,0.2,0.6c0,0.2-0.1,0.4-0.2,0.6
		c-0.2,0.1-0.4,0.2-0.7,0.2h-5.5c-0.4,0-0.8-0.1-1-0.3s-0.3-0.5-0.3-1v-7.5c0-0.3,0-0.5,0.1-0.7s0.2-0.3,0.4-0.4
		c0.2-0.1,0.4-0.1,0.7-0.1h5.4c0.3,0,0.6,0.1,0.7,0.2c0.2,0.1,0.2,0.3,0.2,0.6c0,0.2-0.1,0.4-0.2,0.6
		C330.8,203.9,330.5,204,330.2,204z"/>
	<path class="st0" d="M340.6,209.4c0,0.6-0.2,1.2-0.5,1.6c-0.3,0.5-0.8,0.9-1.4,1.1s-1.3,0.4-2.1,0.4c-1,0-1.8-0.2-2.4-0.6
		c-0.5-0.3-0.8-0.6-1.1-1.1c-0.3-0.4-0.4-0.9-0.4-1.3c0-0.2,0.1-0.5,0.3-0.6c0.2-0.2,0.4-0.3,0.7-0.3c0.2,0,0.4,0.1,0.5,0.2
		c0.1,0.1,0.3,0.3,0.4,0.6s0.3,0.6,0.4,0.8s0.4,0.4,0.6,0.5c0.3,0.1,0.6,0.2,1.1,0.2c0.6,0,1.1-0.1,1.5-0.4c0.4-0.3,0.6-0.6,0.6-1
		c0-0.3-0.1-0.6-0.3-0.8c-0.2-0.2-0.5-0.4-0.8-0.5s-0.8-0.2-1.3-0.3c-0.7-0.2-1.3-0.4-1.8-0.6c-0.5-0.2-0.9-0.5-1.2-0.9
		c-0.3-0.4-0.4-0.9-0.4-1.5s0.2-1,0.5-1.5s0.7-0.8,1.3-1c0.6-0.2,1.2-0.3,2-0.3c0.6,0,1.1,0.1,1.6,0.2c0.4,0.2,0.8,0.4,1.1,0.6
		c0.3,0.3,0.5,0.5,0.6,0.8s0.2,0.5,0.2,0.8c0,0.2-0.1,0.5-0.3,0.7c-0.2,0.2-0.4,0.3-0.6,0.3s-0.4-0.1-0.5-0.2
		c-0.1-0.1-0.3-0.3-0.4-0.6c-0.2-0.4-0.4-0.7-0.7-0.9c-0.3-0.2-0.7-0.3-1.2-0.3s-0.9,0.1-1.3,0.3c-0.3,0.2-0.5,0.5-0.5,0.8
		c0,0.2,0.1,0.4,0.2,0.5s0.3,0.3,0.5,0.4s0.4,0.2,0.6,0.2s0.5,0.1,1,0.3c0.6,0.1,1.1,0.3,1.5,0.4c0.5,0.2,0.8,0.4,1.2,0.6
		c0.3,0.2,0.6,0.5,0.8,0.9C340.5,208.5,340.6,208.9,340.6,209.4z"/>
</g>
</svg>
