<?xml version="1.0" encoding="utf-8"?>
<!-- Generator: Adobe Illustrator 26.0.1, SVG Export Plug-In . SVG Version: 6.00 Build 0)  -->
<svg version="1.1" id="Layer_1" xmlns="http://www.w3.org/2000/svg" xmlns:xlink="http://www.w3.org/1999/xlink" x="0px" y="0px"
	 viewBox="0 0 360 360" style="enable-background:new 0 0 360 360;" xml:space="preserve">
<style type="text/css">
	.st0{fill:#FFFFFF;}
</style>
<g>
	<path class="st0" d="M215.8,92.5c1.9,4.9,3.9,9.8,5.7,14.8c5.5,14.8,13.2,28.5,22,41.6c1.4,2.1,3,3.5,4.8,4.2h7.7
		c0.1,0,0.3-0.1,0.4-0.1c1.2-0.4,2.3-1,3.5-1.5c1.2-0.5,2.5-1.1,3.8-1.5c1.7-0.5,2.8,0.5,2.3,2.2c-0.1,0.3-0.2,0.6-0.3,0.9h8.9
		c0-1,0-2,0-3c-0.4-1-0.6-2-1.1-2.9c-2.3-4.6-7.1-6.5-12-4.8c-2.4,0.8-4.6,2.1-6.9,3.2c-3,1.4-3.9,1.2-5.8-1.4
		c-8.7-11.8-16.7-24-22.8-37.4c-1.9-4.1-3.8-8.2-6-12.2c-1-1.8-2.5-3.3-3.8-4.8c-0.2-0.2-0.6-0.2-0.8-0.3c-0.1,0.3-0.2,0.6-0.1,0.9
		C215.3,91.1,215.5,91.8,215.8,92.5z"/>
	<path class="st0" d="M78.9,153.1h9.4c-2.7-3.2-5.1-6.7-7.3-10.3c-1.4-2.3-1.8-4.9-1.3-7.6c1-5.3,1.4-10.6,1.4-16
		c0-0.9,0.1-1.8,0.1-2.7c0.2-4.9,2.5-8.7,5.9-12c5.2-4.9,9.4-10.5,12.5-17c3-6.4,8.1-10.8,14.4-13.9c10.6-5.3,21.9-6.8,33.6-5.9
		c1.5,0.1,3,0.5,4.4,1.1c1.6,0.6,1.8,1.3,1.2,2.9c-1.3,3.2-0.5,6,1.8,8.4c7,7.1,15.3,9.1,24.8,6.1c2-0.6,4-1.4,6-1.8
		c3-0.6,6,0.2,8.9,0.9c3.4,0.9,6.7,1.8,10.1,2.5c2.5,0.5,5.2,0.5,7.6-0.7c0.4-0.2,0.7-0.7,1-1c-0.5-0.2-0.9-0.5-1.4-0.6
		c-1.9-0.1-3.8,0.1-5.6-0.3c-3.3-0.8-6.6-1.9-9.8-2.9c-3.4-1.1-6.7-2.3-10.3-1.9c-2.7,0.3-5.4,1.1-8.1,1.8c-7.3,1.9-13.6,0.3-19-5
		c-1.3-1.2-1.7-2.5-1-4.3c1.3-3.3,0.3-6.1-2.6-8.1c-1.9-1.3-4-2-6.2-2.3c-11.6-1.3-22.9,0-33.8,4.1c-7.4,2.8-13.9,7-18.8,13.4
		c-1,1.3-2,2.7-2.8,4.2c-3,5.5-7,10.2-11.9,14.2c-2.6,2.1-4.8,4.6-6.5,7.6c-2.3,4.1-3,8.5-2.9,13.1c0,4.7-0.1,9.5-1,14.1
		c-1.1,5.7,0.3,10.9,3.8,15.5C76.6,150.3,77.7,151.7,78.9,153.1z"/>
	<path class="st0" d="M243.6,219.1c-0.4-3.5-1.3-6.9-2.2-10.4c-0.2-0.8-0.4-1.5-0.5-2.3h-9.4c0.1,0.8,0.3,1.7,0.5,2.5
		c0.6,2.5,1.5,5,2.2,7.6c1.4,5.4,0.7,7.2-4,10.1c-2,1.3-4.1,2.5-6,4.1c-3.5,2.9-5.1,6.7-4.5,11.2c0.2,1.1,0.3,2.3,0.6,3.4
		c0.5,2,0,3.7-1.5,5c-3,2.6-4.7,6-5.9,9.7c-1.8,5.9-4.9,11-9.3,15.3c-6.4,6.2-14,9-23,7.6c-2-0.3-3.1-1.4-3.7-3.2
		c-0.3-0.9-0.5-1.9-0.7-2.8c-0.9-3.9-1.6-7.8-2.7-11.6c-2.8-9.2-5.7-18.3-8.8-27.4c-2.6-7.5-3.3-14.7-0.2-22.3
		c0.9-2.2,1.2-4.8,1.3-7.2c0-0.7,0-1.4,0-2.2h-7.1c0,2-0.4,4.1-1.2,6.3c-0.6,1.6-1.2,3.2-1.8,4.9c-2.1,5.3-2.3,10.8-1,16.3
		c2.1,9,5.7,17.4,9.5,25.8c3,6.6,6,13.3,9.1,19.9c0.4,0.9,0.9,1.8,1.4,2.7c1.1,1.8,2.7,2.9,4.8,3.2c0.3,0,0.6,0.2,1,0.3
		c2,0,4.1,0,6.1,0c0.2-0.1,0.5-0.2,0.7-0.2c3.4-0.8,6.8-1.3,10.1-2.4c10-3.5,17.7-9.6,21.5-19.8c1.2-3.3,2.9-6.2,5.7-8.5
		c3.1-2.6,4-6.1,3.5-10.1c-0.1-1.1-0.3-2.3-0.4-3.4c-0.2-1.6,0.4-3,1.7-4c1-0.8,2.1-1.4,3.2-2.1c1.7-1,3.5-1.9,5.1-3.1
		C241.8,229,244.2,224.6,243.6,219.1z"/>
</g>
<g>
	<path class="st0" d="M42.7,166.8H29.6v8.4h11c1,0,1.8,0.2,2.3,0.7c0.5,0.5,0.8,1.1,0.8,1.8s-0.3,1.4-0.8,1.8
		c-0.5,0.4-1.3,0.7-2.3,0.7h-11V191c0,1.4-0.3,2.4-0.9,3.1c-0.6,0.7-1.4,1-2.4,1c-1,0-1.8-0.3-2.4-1c-0.6-0.7-0.9-1.7-0.9-3.1v-25.3
		c0-1,0.1-1.7,0.4-2.3c0.3-0.6,0.7-1,1.3-1.3c0.6-0.3,1.4-0.4,2.3-0.4h15.7c1.1,0,1.9,0.2,2.4,0.7s0.8,1.1,0.8,1.9
		c0,0.8-0.3,1.4-0.8,1.9S43.8,166.8,42.7,166.8z"/>
	<path class="st0" d="M51.1,191v-25.9c0-1.3,0.3-2.4,0.9-3c0.6-0.7,1.4-1,2.4-1c1,0,1.8,0.3,2.4,1c0.6,0.7,0.9,1.7,0.9,3V191
		c0,1.4-0.3,2.4-0.9,3.1c-0.6,0.7-1.4,1-2.4,1c-1,0-1.7-0.3-2.4-1C51.4,193.4,51.1,192.4,51.1,191z"/>
	<path class="st0" d="M74.2,180.5h-2.3V191c0,1.4-0.3,2.4-0.9,3.1c-0.6,0.7-1.4,1-2.4,1c-1.1,0-1.9-0.3-2.5-1s-0.9-1.7-0.9-3v-25.3
		c0-1.4,0.3-2.5,1-3.1c0.6-0.6,1.7-1,3.1-1h10.8c1.5,0,2.8,0.1,3.8,0.2c1.1,0.1,2,0.4,2.9,0.8c1,0.4,1.9,1.1,2.7,1.9
		c0.8,0.8,1.4,1.7,1.8,2.8c0.4,1.1,0.6,2.2,0.6,3.4c0,2.5-0.7,4.4-2.1,5.9c-1.4,1.5-3.5,2.5-6.3,3.1c1.2,0.6,2.3,1.6,3.4,2.8
		s2,2.5,2.9,3.9c0.8,1.4,1.5,2.6,2,3.8c0.5,1.1,0.7,1.9,0.7,2.3c0,0.4-0.1,0.9-0.4,1.3c-0.3,0.4-0.7,0.8-1.1,1
		c-0.5,0.2-1,0.4-1.7,0.4c-0.7,0-1.4-0.2-1.9-0.5c-0.5-0.4-0.9-0.8-1.3-1.3c-0.4-0.5-0.9-1.3-1.5-2.4l-2.7-4.4
		c-1-1.6-1.8-2.9-2.6-3.7c-0.8-0.9-1.5-1.4-2.3-1.8C76.4,180.6,75.4,180.5,74.2,180.5z M78,166.6h-6.2v9.1h6c1.6,0,2.9-0.1,4-0.4
		c1.1-0.3,1.9-0.7,2.5-1.4c0.6-0.7,0.9-1.6,0.9-2.8c0-0.9-0.2-1.7-0.7-2.4c-0.5-0.7-1.1-1.2-1.9-1.6C81.8,166.8,80.3,166.6,78,166.6
		z"/>
	<path class="st0" d="M123.3,184.7c0,2-0.5,3.8-1.5,5.4c-1,1.6-2.5,2.8-4.5,3.7s-4.3,1.3-7,1.3c-3.2,0-5.9-0.6-8-1.8
		c-1.5-0.9-2.7-2.1-3.6-3.5c-0.9-1.5-1.4-2.9-1.4-4.3c0-0.8,0.3-1.5,0.8-2.1c0.6-0.6,1.3-0.9,2.1-0.9c0.7,0,1.3,0.2,1.8,0.7
		c0.5,0.4,0.9,1.1,1.2,2c0.4,1,0.9,1.9,1.4,2.6c0.5,0.7,1.2,1.3,2.1,1.7c0.9,0.5,2,0.7,3.5,0.7c2,0,3.6-0.5,4.8-1.4
		c1.2-0.9,1.9-2.1,1.9-3.4c0-1.1-0.3-2-1-2.7c-0.7-0.7-1.5-1.2-2.6-1.6s-2.5-0.7-4.2-1.1c-2.4-0.6-4.3-1.2-5.9-1.9s-2.9-1.8-3.8-3
		c-0.9-1.3-1.4-2.9-1.4-4.8c0-1.8,0.5-3.4,1.5-4.8c1-1.4,2.4-2.5,4.3-3.2c1.9-0.8,4.1-1.1,6.6-1.1c2,0,3.8,0.3,5.2,0.8
		c1.5,0.5,2.7,1.2,3.7,2c1,0.8,1.7,1.7,2.1,2.6c0.4,0.9,0.7,1.8,0.7,2.7c0,0.8-0.3,1.5-0.8,2.1c-0.6,0.6-1.3,1-2.1,1
		c-0.8,0-1.3-0.2-1.7-0.6c-0.4-0.4-0.8-1-1.3-1.9c-0.6-1.2-1.3-2.2-2.2-2.9c-0.8-0.7-2.2-1-4-1c-1.7,0-3.1,0.4-4.2,1.1
		c-1.1,0.8-1.6,1.7-1.6,2.7c0,0.7,0.2,1.2,0.5,1.7c0.4,0.5,0.9,0.9,1.5,1.2c0.6,0.3,1.3,0.6,1.9,0.8c0.6,0.2,1.7,0.5,3.2,0.9
		c1.9,0.4,3.5,0.9,5,1.4c1.5,0.5,2.8,1.2,3.8,1.9c1.1,0.7,1.9,1.7,2.5,2.8C123,181.6,123.3,183,123.3,184.7z"/>
	<path class="st0" d="M150.4,167.1h-7.3V191c0,1.4-0.3,2.4-0.9,3.1c-0.6,0.7-1.4,1-2.4,1c-1,0-1.8-0.3-2.4-1
		c-0.6-0.7-0.9-1.7-0.9-3.1v-23.9h-7.3c-1.1,0-2-0.3-2.5-0.8c-0.6-0.5-0.8-1.2-0.8-2c0-0.9,0.3-1.5,0.9-2c0.6-0.5,1.4-0.7,2.5-0.7
		h21.2c1.2,0,2,0.3,2.6,0.8c0.6,0.5,0.8,1.2,0.8,2c0,0.8-0.3,1.5-0.9,2C152.4,166.9,151.5,167.1,150.4,167.1z"/>
	<path class="st0" d="M190.3,190.8l-1.6-4.1h-13.4l-1.6,4.2c-0.6,1.6-1.1,2.8-1.6,3.3c-0.4,0.6-1.1,0.9-2.1,0.9
		c-0.8,0-1.6-0.3-2.2-0.9s-1-1.3-1-2.1c0-0.4,0.1-0.9,0.2-1.4s0.4-1.1,0.7-2l8.4-21.4c0.2-0.6,0.5-1.4,0.9-2.2
		c0.3-0.9,0.7-1.6,1.1-2.1c0.4-0.6,0.9-1,1.5-1.4c0.6-0.4,1.4-0.5,2.3-0.5c0.9,0,1.7,0.2,2.3,0.5c0.6,0.4,1.1,0.8,1.5,1.4
		c0.4,0.6,0.7,1.1,1,1.8c0.3,0.6,0.6,1.5,1,2.5l8.6,21.2c0.7,1.6,1,2.8,1,3.5c0,0.8-0.3,1.5-1,2.1c-0.6,0.6-1.4,1-2.3,1
		c-0.5,0-1-0.1-1.3-0.3c-0.4-0.2-0.7-0.4-0.9-0.8c-0.3-0.3-0.5-0.8-0.8-1.5C190.8,191.9,190.5,191.3,190.3,190.8z M177.1,181.7h9.8
		l-5-13.6L177.1,181.7z"/>
	<path class="st0" d="M222,166.8h-13.1v8.4h11c1,0,1.8,0.2,2.3,0.7c0.5,0.5,0.8,1.1,0.8,1.8s-0.3,1.4-0.8,1.8s-1.3,0.7-2.3,0.7h-11
		V191c0,1.4-0.3,2.4-0.9,3.1c-0.6,0.7-1.4,1-2.4,1c-1,0-1.8-0.3-2.4-1c-0.6-0.7-0.9-1.7-0.9-3.1v-25.3c0-1,0.1-1.7,0.4-2.3
		s0.7-1,1.3-1.3c0.6-0.3,1.4-0.4,2.3-0.4H222c1.1,0,1.9,0.2,2.4,0.7c0.5,0.5,0.8,1.1,0.8,1.9c0,0.8-0.3,1.4-0.8,1.9
		C223.9,166.5,223.1,166.8,222,166.8z"/>
	<path class="st0" d="M239.1,180.5h-2.3V191c0,1.4-0.3,2.4-0.9,3.1s-1.4,1-2.4,1c-1.1,0-1.9-0.3-2.5-1s-0.9-1.7-0.9-3v-25.3
		c0-1.4,0.3-2.5,1-3.1c0.6-0.6,1.7-1,3.1-1H245c1.5,0,2.8,0.1,3.8,0.2c1.1,0.1,2,0.4,2.9,0.8c1,0.4,1.9,1.1,2.7,1.9s1.4,1.7,1.8,2.8
		c0.4,1.1,0.6,2.2,0.6,3.4c0,2.5-0.7,4.4-2.1,5.9c-1.4,1.5-3.5,2.5-6.3,3.1c1.2,0.6,2.3,1.6,3.4,2.8s2,2.5,2.9,3.9
		c0.8,1.4,1.5,2.6,2,3.8c0.5,1.1,0.7,1.9,0.7,2.3c0,0.4-0.1,0.9-0.4,1.3c-0.3,0.4-0.7,0.8-1.1,1c-0.5,0.2-1,0.4-1.7,0.4
		c-0.7,0-1.4-0.2-1.9-0.5c-0.5-0.4-0.9-0.8-1.3-1.3c-0.4-0.5-0.9-1.3-1.5-2.4l-2.7-4.4c-1-1.6-1.8-2.9-2.6-3.7
		c-0.8-0.9-1.5-1.4-2.3-1.8S240.3,180.5,239.1,180.5z M242.9,166.6h-6.2v9.1h6c1.6,0,3-0.1,4-0.4c1.1-0.3,1.9-0.7,2.5-1.4
		c0.6-0.7,0.9-1.6,0.9-2.8c0-0.9-0.2-1.7-0.7-2.4s-1.1-1.2-1.9-1.6C246.7,166.8,245.2,166.6,242.9,166.6z"/>
	<path class="st0" d="M263.5,191v-25.9c0-1.3,0.3-2.4,0.9-3s1.4-1,2.4-1c1,0,1.8,0.3,2.4,1c0.6,0.7,0.9,1.7,0.9,3V191
		c0,1.4-0.3,2.4-0.9,3.1c-0.6,0.7-1.4,1-2.4,1c-1,0-1.7-0.3-2.4-1C263.8,193.4,263.5,192.4,263.5,191z"/>
	<path class="st0" d="M305.6,184.1c0,1-0.3,2.2-0.8,3.4c-0.5,1.2-1.3,2.4-2.4,3.6c-1.1,1.2-2.5,2.1-4.2,2.9s-3.7,1.1-6,1.1
		c-1.7,0-3.3-0.2-4.7-0.5s-2.7-0.8-3.9-1.5c-1.2-0.7-2.2-1.6-3.2-2.8c-0.9-1-1.6-2.2-2.2-3.5s-1.1-2.6-1.4-4.1
		c-0.3-1.5-0.5-3-0.5-4.6c0-2.7,0.4-5,1.2-7.1c0.8-2.1,1.9-3.9,3.3-5.4c1.4-1.5,3.1-2.6,5.1-3.4c1.9-0.8,4-1.2,6.2-1.2
		c2.7,0,5,0.5,7.1,1.6c2.1,1.1,3.7,2.4,4.8,3.9c1.1,1.6,1.7,3,1.7,4.4c0,0.8-0.3,1.4-0.8,2s-1.2,0.9-2,0.9c-0.9,0-1.5-0.2-1.9-0.6
		c-0.4-0.4-0.9-1.1-1.4-2.1c-0.9-1.6-1.9-2.9-3.1-3.7c-1.2-0.8-2.6-1.2-4.3-1.2c-2.7,0-4.9,1-6.5,3.1c-1.6,2.1-2.4,5-2.4,8.9
		c0,2.6,0.4,4.7,1.1,6.4c0.7,1.7,1.7,3,3.1,3.8s2.9,1.3,4.6,1.3c1.9,0,3.5-0.5,4.9-1.4c1.3-1,2.3-2.3,3-4.2c0.3-0.9,0.6-1.6,1.1-2.1
		c0.4-0.5,1.1-0.8,2-0.8c0.8,0,1.5,0.3,2,0.8S305.6,183.3,305.6,184.1z"/>
	<path class="st0" d="M332.7,190.8l-1.6-4.1h-13.4l-1.6,4.2c-0.6,1.6-1.1,2.8-1.6,3.3c-0.4,0.6-1.1,0.9-2.1,0.9
		c-0.8,0-1.6-0.3-2.2-0.9s-1-1.3-1-2.1c0-0.4,0.1-0.9,0.2-1.4s0.4-1.1,0.7-2l8.4-21.4c0.2-0.6,0.5-1.4,0.9-2.2
		c0.3-0.9,0.7-1.6,1.1-2.1c0.4-0.6,0.9-1,1.5-1.4c0.6-0.4,1.4-0.5,2.3-0.5c0.9,0,1.7,0.2,2.3,0.5c0.6,0.4,1.1,0.8,1.5,1.4
		c0.4,0.6,0.7,1.1,1,1.8c0.3,0.6,0.6,1.5,1,2.5l8.6,21.2c0.7,1.6,1,2.8,1,3.5c0,0.8-0.3,1.5-1,2.1c-0.6,0.6-1.4,1-2.3,1
		c-0.5,0-1-0.1-1.3-0.3c-0.4-0.2-0.7-0.4-0.9-0.8c-0.3-0.3-0.5-0.8-0.8-1.5C333.2,191.9,332.9,191.3,332.7,190.8z M319.5,181.7h9.8
		l-5-13.6L319.5,181.7z"/>
</g>
<g>
	<path class="st0" d="M255.6,208.1h-0.7v3.2c0,0.4-0.1,0.7-0.3,0.9s-0.4,0.3-0.7,0.3c-0.3,0-0.6-0.1-0.8-0.3s-0.3-0.5-0.3-0.9v-7.7
		c0-0.4,0.1-0.8,0.3-1s0.5-0.3,1-0.3h3.3c0.5,0,0.8,0,1.2,0.1c0.3,0,0.6,0.1,0.9,0.2c0.3,0.1,0.6,0.3,0.8,0.6s0.4,0.5,0.6,0.9
		c0.1,0.3,0.2,0.7,0.2,1c0,0.7-0.2,1.3-0.6,1.8c-0.4,0.4-1.1,0.8-1.9,1c0.4,0.2,0.7,0.5,1,0.8s0.6,0.8,0.9,1.2
		c0.3,0.4,0.5,0.8,0.6,1.1c0.1,0.3,0.2,0.6,0.2,0.7c0,0.1,0,0.3-0.1,0.4c-0.1,0.1-0.2,0.2-0.3,0.3c-0.1,0.1-0.3,0.1-0.5,0.1
		c-0.2,0-0.4-0.1-0.6-0.2c-0.2-0.1-0.3-0.2-0.4-0.4c-0.1-0.2-0.3-0.4-0.5-0.7l-0.8-1.4c-0.3-0.5-0.6-0.9-0.8-1.1
		c-0.2-0.3-0.5-0.4-0.7-0.5S256,208.1,255.6,208.1z M256.8,203.9h-1.9v2.8h1.8c0.5,0,0.9,0,1.2-0.1c0.3-0.1,0.6-0.2,0.8-0.4
		c0.2-0.2,0.3-0.5,0.3-0.8c0-0.3-0.1-0.5-0.2-0.7c-0.1-0.2-0.3-0.4-0.6-0.5C258,204,257.5,203.9,256.8,203.9z"/>
	<path class="st0" d="M269.6,204H265v2.5h4.2c0.3,0,0.5,0.1,0.7,0.2c0.2,0.1,0.2,0.3,0.2,0.6s-0.1,0.4-0.2,0.6
		c-0.2,0.1-0.4,0.2-0.7,0.2H265v2.9h4.7c0.3,0,0.6,0.1,0.7,0.2c0.2,0.1,0.2,0.3,0.2,0.6c0,0.2-0.1,0.4-0.2,0.6
		c-0.2,0.1-0.4,0.2-0.7,0.2h-5.5c-0.4,0-0.8-0.1-1-0.3c-0.2-0.2-0.3-0.5-0.3-1v-7.5c0-0.3,0-0.5,0.1-0.7c0.1-0.2,0.2-0.3,0.4-0.4
		c0.2-0.1,0.4-0.1,0.7-0.1h5.4c0.3,0,0.6,0.1,0.7,0.2c0.2,0.1,0.2,0.3,0.2,0.6c0,0.2-0.1,0.4-0.2,0.6
		C270.1,203.9,269.9,204,269.6,204z"/>
	<path class="st0" d="M279.9,209.4c0,0.6-0.2,1.2-0.5,1.6c-0.3,0.5-0.8,0.9-1.4,1.1s-1.3,0.4-2.1,0.4c-1,0-1.8-0.2-2.4-0.6
		c-0.5-0.3-0.8-0.6-1.1-1.1c-0.3-0.4-0.4-0.9-0.4-1.3c0-0.2,0.1-0.5,0.3-0.6c0.2-0.2,0.4-0.3,0.7-0.3c0.2,0,0.4,0.1,0.5,0.2
		c0.1,0.1,0.3,0.3,0.4,0.6c0.1,0.3,0.3,0.6,0.4,0.8c0.1,0.2,0.4,0.4,0.6,0.5c0.3,0.1,0.6,0.2,1.1,0.2c0.6,0,1.1-0.1,1.5-0.4
		c0.4-0.3,0.6-0.6,0.6-1c0-0.3-0.1-0.6-0.3-0.8c-0.2-0.2-0.5-0.4-0.8-0.5c-0.3-0.1-0.8-0.2-1.3-0.3c-0.7-0.2-1.3-0.4-1.8-0.6
		c-0.5-0.2-0.9-0.5-1.2-0.9c-0.3-0.4-0.4-0.9-0.4-1.5c0-0.6,0.2-1,0.5-1.5s0.7-0.8,1.3-1c0.6-0.2,1.2-0.3,2-0.3
		c0.6,0,1.1,0.1,1.6,0.2c0.4,0.2,0.8,0.4,1.1,0.6c0.3,0.3,0.5,0.5,0.6,0.8s0.2,0.5,0.2,0.8c0,0.2-0.1,0.5-0.3,0.7
		c-0.2,0.2-0.4,0.3-0.6,0.3c-0.2,0-0.4-0.1-0.5-0.2c-0.1-0.1-0.3-0.3-0.4-0.6c-0.2-0.4-0.4-0.7-0.7-0.9c-0.3-0.2-0.7-0.3-1.2-0.3
		c-0.5,0-0.9,0.1-1.3,0.3c-0.3,0.2-0.5,0.5-0.5,0.8c0,0.2,0.1,0.4,0.2,0.5s0.3,0.3,0.5,0.4s0.4,0.2,0.6,0.2s0.5,0.1,1,0.3
		c0.6,0.1,1.1,0.3,1.5,0.4c0.5,0.2,0.8,0.4,1.2,0.6c0.3,0.2,0.6,0.5,0.8,0.9C279.8,208.5,279.9,208.9,279.9,209.4z"/>
	<path class="st0" d="M286.1,202.2c1,0,1.9,0.2,2.7,0.6c0.7,0.4,1.3,1,1.7,1.8c0.4,0.8,0.6,1.7,0.6,2.7c0,0.8-0.1,1.5-0.3,2.1
		s-0.5,1.2-0.9,1.6s-0.9,0.8-1.5,1.1s-1.3,0.4-2.1,0.4c-0.8,0-1.5-0.1-2.1-0.4c-0.6-0.3-1.1-0.6-1.6-1.1s-0.7-1-0.9-1.7
		c-0.2-0.6-0.3-1.3-0.3-2.1c0-0.8,0.1-1.5,0.3-2.1c0.2-0.6,0.5-1.2,1-1.6s0.9-0.8,1.5-1C284.6,202.3,285.3,202.2,286.1,202.2z
		 M288.9,207.4c0-0.7-0.1-1.4-0.4-1.9s-0.6-0.9-1-1.2c-0.4-0.3-0.9-0.4-1.5-0.4c-0.4,0-0.8,0.1-1.1,0.2c-0.3,0.2-0.6,0.4-0.9,0.7
		c-0.2,0.3-0.4,0.7-0.6,1.1c-0.1,0.5-0.2,1-0.2,1.5c0,0.6,0.1,1.1,0.2,1.5c0.1,0.5,0.3,0.8,0.6,1.1c0.3,0.3,0.6,0.5,0.9,0.7
		c0.3,0.2,0.7,0.2,1.1,0.2c0.5,0,1-0.1,1.4-0.4c0.4-0.3,0.8-0.7,1-1.2C288.8,208.8,288.9,208.2,288.9,207.4z"/>
	<path class="st0" d="M292.8,208.3v-4.8c0-0.4,0.1-0.7,0.3-0.9c0.2-0.2,0.4-0.3,0.7-0.3c0.3,0,0.6,0.1,0.7,0.3
		c0.2,0.2,0.3,0.5,0.3,0.9v4.9c0,0.6,0.1,1,0.2,1.4c0.1,0.4,0.3,0.7,0.7,0.9c0.3,0.2,0.8,0.3,1.3,0.3c0.8,0,1.4-0.2,1.7-0.6
		c0.3-0.4,0.5-1.1,0.5-1.9v-5c0-0.4,0.1-0.7,0.3-0.9c0.2-0.2,0.4-0.3,0.7-0.3s0.6,0.1,0.7,0.3c0.2,0.2,0.3,0.5,0.3,0.9v4.8
		c0,0.8-0.1,1.4-0.2,2c-0.2,0.5-0.4,1-0.9,1.4c-0.4,0.3-0.8,0.6-1.3,0.7s-1,0.2-1.7,0.2c-0.8,0-1.4-0.1-2-0.2
		c-0.6-0.2-1-0.4-1.4-0.8c-0.4-0.3-0.6-0.8-0.8-1.3C292.8,209.7,292.8,209,292.8,208.3z"/>
	<path class="st0" d="M306.1,208.1h-0.7v3.2c0,0.4-0.1,0.7-0.3,0.9s-0.4,0.3-0.7,0.3c-0.3,0-0.6-0.1-0.8-0.3s-0.3-0.5-0.3-0.9v-7.7
		c0-0.4,0.1-0.8,0.3-1s0.5-0.3,1-0.3h3.3c0.5,0,0.8,0,1.2,0.1c0.3,0,0.6,0.1,0.9,0.2c0.3,0.1,0.6,0.3,0.8,0.6s0.4,0.5,0.6,0.9
		c0.1,0.3,0.2,0.7,0.2,1c0,0.7-0.2,1.3-0.6,1.8c-0.4,0.4-1.1,0.8-1.9,1c0.4,0.2,0.7,0.5,1,0.8s0.6,0.8,0.9,1.2
		c0.3,0.4,0.5,0.8,0.6,1.1c0.1,0.3,0.2,0.6,0.2,0.7c0,0.1,0,0.3-0.1,0.4c-0.1,0.1-0.2,0.2-0.3,0.3c-0.1,0.1-0.3,0.1-0.5,0.1
		c-0.2,0-0.4-0.1-0.6-0.2c-0.2-0.1-0.3-0.2-0.4-0.4c-0.1-0.2-0.3-0.4-0.5-0.7l-0.8-1.4c-0.3-0.5-0.6-0.9-0.8-1.1
		c-0.2-0.3-0.5-0.4-0.7-0.5S306.5,208.1,306.1,208.1z M307.3,203.9h-1.9v2.8h1.8c0.5,0,0.9,0,1.2-0.1c0.3-0.1,0.6-0.2,0.8-0.4
		c0.2-0.2,0.3-0.5,0.3-0.8c0-0.3-0.1-0.5-0.2-0.7c-0.1-0.2-0.3-0.4-0.6-0.5C308.4,204,308,203.9,307.3,203.9z"/>
	<path class="st0" d="M321.8,209.2c0,0.3-0.1,0.7-0.2,1c-0.2,0.4-0.4,0.7-0.7,1.1c-0.3,0.4-0.8,0.6-1.3,0.9s-1.1,0.3-1.8,0.3
		c-0.5,0-1,0-1.4-0.2s-0.8-0.3-1.2-0.5c-0.4-0.2-0.7-0.5-1-0.8c-0.3-0.3-0.5-0.7-0.7-1.1c-0.2-0.4-0.3-0.8-0.4-1.2
		c-0.1-0.4-0.1-0.9-0.1-1.4c0-0.8,0.1-1.5,0.4-2.2c0.2-0.6,0.6-1.2,1-1.6c0.4-0.5,1-0.8,1.5-1s1.2-0.4,1.9-0.4
		c0.8,0,1.5,0.2,2.2,0.5s1.1,0.7,1.5,1.2c0.3,0.5,0.5,0.9,0.5,1.4c0,0.2-0.1,0.4-0.2,0.6s-0.4,0.3-0.6,0.3c-0.3,0-0.5-0.1-0.6-0.2
		c-0.1-0.1-0.3-0.3-0.4-0.6c-0.3-0.5-0.6-0.9-0.9-1.1c-0.4-0.2-0.8-0.4-1.3-0.4c-0.8,0-1.5,0.3-2,1c-0.5,0.6-0.7,1.5-0.7,2.7
		c0,0.8,0.1,1.4,0.3,1.9c0.2,0.5,0.5,0.9,0.9,1.2s0.9,0.4,1.4,0.4c0.6,0,1.1-0.1,1.5-0.4c0.4-0.3,0.7-0.7,0.9-1.3
		c0.1-0.3,0.2-0.5,0.3-0.6c0.1-0.2,0.3-0.2,0.6-0.2c0.2,0,0.4,0.1,0.6,0.3S321.8,209,321.8,209.2z"/>
	<path class="st0" d="M330.2,204h-4.6v2.5h4.2c0.3,0,0.5,0.1,0.7,0.2c0.2,0.1,0.2,0.3,0.2,0.6s-0.1,0.4-0.2,0.6
		c-0.2,0.1-0.4,0.2-0.7,0.2h-4.2v2.9h4.7c0.3,0,0.6,0.1,0.7,0.2c0.2,0.1,0.2,0.3,0.2,0.6c0,0.2-0.1,0.4-0.2,0.6
		c-0.2,0.1-0.4,0.2-0.7,0.2h-5.5c-0.4,0-0.8-0.1-1-0.3c-0.2-0.2-0.3-0.5-0.3-1v-7.5c0-0.3,0-0.5,0.1-0.7c0.1-0.2,0.2-0.3,0.4-0.4
		c0.2-0.1,0.4-0.1,0.7-0.1h5.4c0.3,0,0.6,0.1,0.7,0.2c0.2,0.1,0.2,0.3,0.2,0.6c0,0.2-0.1,0.4-0.2,0.6
		C330.8,203.9,330.5,204,330.2,204z"/>
	<path class="st0" d="M340.6,209.4c0,0.6-0.2,1.2-0.5,1.6c-0.3,0.5-0.8,0.9-1.4,1.1s-1.3,0.4-2.1,0.4c-1,0-1.8-0.2-2.4-0.6
		c-0.5-0.3-0.8-0.6-1.1-1.1c-0.3-0.4-0.4-0.9-0.4-1.3c0-0.2,0.1-0.5,0.3-0.6c0.2-0.2,0.4-0.3,0.7-0.3c0.2,0,0.4,0.1,0.5,0.2
		c0.1,0.1,0.3,0.3,0.4,0.6c0.1,0.3,0.3,0.6,0.4,0.8c0.1,0.2,0.4,0.4,0.6,0.5c0.3,0.1,0.6,0.2,1.1,0.2c0.6,0,1.1-0.1,1.5-0.4
		c0.4-0.3,0.6-0.6,0.6-1c0-0.3-0.1-0.6-0.3-0.8c-0.2-0.2-0.5-0.4-0.8-0.5c-0.3-0.1-0.8-0.2-1.3-0.3c-0.7-0.2-1.3-0.4-1.8-0.6
		c-0.5-0.2-0.9-0.5-1.2-0.9c-0.3-0.4-0.4-0.9-0.4-1.5c0-0.6,0.2-1,0.5-1.5s0.7-0.8,1.3-1c0.6-0.2,1.2-0.3,2-0.3
		c0.6,0,1.1,0.1,1.6,0.2c0.4,0.2,0.8,0.4,1.1,0.6c0.3,0.3,0.5,0.5,0.6,0.8s0.2,0.5,0.2,0.8c0,0.2-0.1,0.5-0.3,0.7
		c-0.2,0.2-0.4,0.3-0.6,0.3c-0.2,0-0.4-0.1-0.5-0.2c-0.1-0.1-0.3-0.3-0.4-0.6c-0.2-0.4-0.4-0.7-0.7-0.9c-0.3-0.2-0.7-0.3-1.2-0.3
		c-0.5,0-0.9,0.1-1.3,0.3c-0.3,0.2-0.5,0.5-0.5,0.8c0,0.2,0.1,0.4,0.2,0.5s0.3,0.3,0.5,0.4s0.4,0.2,0.6,0.2s0.5,0.1,1,0.3
		c0.6,0.1,1.1,0.3,1.5,0.4c0.5,0.2,0.8,0.4,1.2,0.6c0.3,0.2,0.6,0.5,0.8,0.9C340.5,208.5,340.6,208.9,340.6,209.4z"/>
</g>
<g>
</g>
<g>
</g>
<g>
</g>
<g>
</g>
<g>
</g>
</svg>
